<svg xmlns="http://www.w3.org/2000/svg" xmlns:xlink="http://www.w3.org/1999/xlink" width="500" zoomAndPan="magnify" viewBox="0 0 375 374.999991" height="500" preserveAspectRatio="xMidYMid meet" version="1.0"><defs><clipPath id="id1"><path d="M 0.0390625 5.390625 L 374.925781 5.390625 L 374.925781 369.875 L 0.0390625 369.875 Z M 0.0390625 5.390625 " clip-rule="nonzero"/></clipPath></defs><g clip-path="url(#id1)"><path fill="rgb(42.749023%, 42.349243%, 41.958618%)" d="M 87.875 347.367188 C 85.253906 353.269531 79.71875 361.070312 72.800781 362.816406 C 75.207031 365.148438 77.96875 366.679688 81.394531 366.242188 C 83.363281 365.953125 83.871094 369.449219 81.90625 369.742188 C 73.894531 370.90625 69.085938 364.347656 65.15625 358.222656 C 60.128906 350.351562 56.632812 342.773438 55.613281 333.445312 C 54.957031 327.542969 54.882812 321.5625 53.574219 315.730469 C 52.554688 311.140625 50.078125 306.984375 48.988281 302.394531 C 47.746094 297.074219 49.566406 290.878906 55.542969 289.855469 C 56.558594 289.710938 57.070312 291.167969 55.976562 291.464844 C 46 294.015625 53.792969 306.695312 55.542969 312.234375 C 57.433594 318.210938 57.652344 324.476562 58.378906 330.601562 C 59.328125 338.324219 61.292969 345.105469 65.300781 351.808594 C 66.902344 354.507812 68.796875 358.003906 71.199219 360.996094 C 74.546875 359.976562 77.316406 358.664062 80.011719 355.964844 C 82.777344 353.195312 84.671875 349.769531 87.074219 346.707031 C 87.4375 346.128906 88.167969 346.855469 87.875 347.367188 Z M 143.152344 338.910156 C 153.933594 332.789062 163.109375 323.382812 168.351562 312.234375 C 168.789062 311.359375 169.953125 312.015625 169.808594 312.816406 C 167.550781 324.625 153.859375 334.828125 143.808594 340.003906 C 143.082031 340.441406 142.425781 339.347656 143.152344 338.910156 Z M 314.230469 251.519531 C 306.363281 249.40625 298.425781 249.769531 290.414062 249.480469 C 284.371094 249.261719 277.453125 248.894531 272.28125 245.398438 C 271.695312 244.960938 272.058594 244.011719 272.789062 244.234375 C 280.363281 246.125 287.355469 247.367188 295.148438 247.730469 C 301.773438 248.023438 308.257812 248.460938 314.59375 250.574219 C 315.105469 250.71875 314.882812 251.667969 314.230469 251.519531 Z M 258.222656 292.992188 C 254.070312 291.679688 249.121094 289.785156 246.136719 286.433594 C 245.769531 285.996094 246.207031 285.339844 246.71875 285.632812 C 248.539062 286.652344 250.210938 288.109375 252.03125 289.128906 C 254.070312 290.296875 256.1875 291.316406 258.441406 292.117188 C 258.949219 292.335938 258.734375 293.136719 258.222656 292.992188 Z M 306.652344 121.273438 C 308.839844 117.921875 313.207031 114.785156 317.433594 116.027344 C 318.089844 116.246094 318.160156 117.191406 317.433594 117.339844 C 315.6875 117.703125 313.9375 117.777344 312.191406 118.503906 C 310.445312 119.304688 308.695312 120.398438 307.457031 121.855469 C 307.09375 122.292969 306.363281 121.710938 306.652344 121.273438 Z M 284.152344 163.910156 C 269.875 178.636719 257.496094 195.984375 237.25 202.324219 C 236.738281 202.46875 236.523438 201.664062 237.03125 201.519531 C 247.515625 197.65625 256.1875 190.882812 263.757812 182.789062 C 270.09375 176.011719 275.703125 168.210938 283.203125 162.671875 C 283.933594 162.164062 284.734375 163.328125 284.152344 163.910156 Z M 221.226562 116.246094 C 218.386719 118.355469 217.367188 125.574219 216.421875 128.855469 C 215.253906 133.007812 214.089844 137.089844 213.070312 141.246094 C 212.921875 141.753906 212.125 141.535156 212.269531 141.027344 C 213.652344 134.539062 215.109375 128.125 216.859375 121.785156 C 217.585938 119.234375 217.800781 115.296875 220.933594 115.226562 C 221.519531 115.152344 221.59375 115.953125 221.226562 116.246094 Z M 248.609375 79.074219 C 253.34375 71.347656 257.640625 63.402344 259.464844 54.4375 C 261.136719 45.910156 261.863281 37.019531 264.125 28.636719 C 264.34375 27.910156 265.578125 28.054688 265.503906 28.855469 C 264.851562 37.746094 262.886719 47.148438 260.917969 55.894531 C 258.949219 64.785156 254.21875 72.074219 249.339844 79.582031 C 249.046875 80.019531 248.246094 79.582031 248.609375 79.074219 Z M 217.074219 153.855469 C 220.28125 134.976562 226.542969 117.117188 233.460938 99.335938 C 236.8125 90.589844 240.308594 81.84375 243.292969 73.023438 C 246.425781 63.839844 248.609375 54.511719 251.378906 45.179688 C 251.597656 44.453125 252.835938 44.597656 252.761719 45.402344 C 250.792969 63.839844 242.492188 81.914062 235.792969 99.042969 C 228.726562 116.972656 221.371094 135.121094 217.949219 154.144531 C 217.800781 154.65625 217.003906 154.4375 217.074219 153.855469 Z M 75.351562 174.480469 C 84.746094 176.375 94.066406 178.707031 103.316406 180.96875 C 110.816406 182.859375 119.191406 184.394531 126.113281 187.964844 C 126.914062 188.402344 126.332031 189.496094 125.527344 189.347656 C 117.515625 187.964844 109.582031 184.832031 101.640625 182.714844 C 92.753906 180.382812 83.796875 178.050781 75.058594 175.355469 C 74.546875 175.136719 74.765625 174.40625 75.351562 174.480469 Z M 62.242188 142.628906 C 61.367188 142.339844 61.730469 141.101562 62.605469 141.246094 C 70.253906 142.921875 77.171875 146.929688 83.507812 151.375 C 83.796875 151.59375 83.507812 152.105469 83.214844 151.882812 C 76.734375 147.585938 69.59375 145.035156 62.242188 142.628906 Z M 48.257812 139.492188 C 64.789062 144.816406 81.320312 152.46875 96.179688 161.359375 C 96.617188 161.578125 96.324219 162.308594 95.8125 162.164062 C 95.304688 162.015625 94.796875 161.871094 94.285156 161.722656 C 94.066406 161.652344 94.066406 161.289062 94.355469 161.289062 C 91.664062 161.289062 86.929688 157.789062 84.378906 156.621094 C 80.59375 154.800781 76.808594 153.050781 72.945312 151.375 C 64.644531 147.730469 56.195312 144.671875 47.820312 141.316406 C 46.726562 140.804688 47.167969 139.128906 48.257812 139.492188 Z M 113.730469 72.003906 C 114.238281 98.898438 119.265625 124.480469 131.574219 148.679688 C 131.863281 149.332031 130.992188 149.847656 130.625 149.261719 C 117.882812 126.011719 110.234375 98.753906 111.835938 72.074219 C 111.910156 70.765625 113.65625 70.765625 113.730469 72.003906 Z M 129.828125 33.375 C 131.574219 38.839844 131.71875 44.816406 132.519531 50.429688 C 133.46875 57.0625 134.925781 63.691406 136.746094 70.183594 C 136.890625 70.835938 135.945312 71.054688 135.796875 70.472656 C 133.683594 64.058594 131.9375 57.644531 130.773438 50.9375 C 129.753906 44.742188 129.390625 38.546875 127.640625 32.5 C 127.347656 31.40625 128.878906 30.96875 129.316406 31.917969 C 129.535156 31.625 129.828125 31.476562 130.261719 31.550781 C 138.636719 33.011719 145.121094 38.914062 147.671875 47.003906 C 147.886719 47.585938 146.941406 47.804688 146.792969 47.222656 C 144.175781 39.859375 137.546875 34.613281 129.828125 33.375 Z M 177.746094 91.902344 C 173.890625 80.894531 170.976562 70.472656 163.910156 60.851562 C 163.617188 60.414062 164.347656 59.832031 164.636719 60.269531 C 171.628906 69.015625 178.328125 80.242188 178.914062 91.683594 C 178.988281 92.410156 177.964844 92.484375 177.746094 91.902344 Z M 173.523438 202.324219 C 174.542969 202.976562 175.492188 203.5625 176.507812 204.144531 C 176.945312 204.363281 177.382812 204.511719 177.820312 204.582031 C 179.132812 207.28125 180.296875 209.976562 181.460938 212.671875 C 178.769531 209.246094 176.074219 205.824219 173.523438 202.324219 Z M 189.109375 208.226562 C 189.472656 210.265625 189.761719 212.382812 189.984375 214.421875 C 189.328125 213.691406 188.746094 212.964844 188.089844 212.234375 C 186.414062 208.445312 184.738281 204.65625 183.28125 200.867188 C 180.445312 193.578125 177.675781 186.289062 175.050781 179 C 176.144531 180.824219 177.53125 182.425781 179.203125 183.519531 C 180.078125 184.101562 180.953125 184.246094 181.679688 184.101562 C 181.972656 184.613281 182.265625 185.046875 182.628906 185.484375 C 182.628906 185.558594 182.699219 185.558594 182.773438 185.632812 C 182.554688 185.996094 182.480469 186.503906 182.628906 187.089844 C 184.300781 194.304688 187.871094 200.792969 189.109375 208.226562 Z M 214.308594 209.320312 C 212.269531 211.578125 210.15625 213.621094 207.898438 215.664062 C 209.574219 213.183594 211.101562 210.632812 212.488281 208.007812 C 213.144531 208.445312 213.726562 208.882812 214.308594 209.320312 Z M 230.476562 194.527344 L 230.476562 194.453125 L 230.546875 194.527344 C 230.546875 194.453125 230.546875 194.453125 230.476562 194.527344 Z M 181.679688 202.832031 C 181.679688 202.832031 181.753906 202.832031 181.679688 202.832031 C 181.679688 202.832031 181.753906 202.90625 181.753906 202.976562 C 181.753906 202.90625 181.753906 202.90625 181.679688 202.832031 Z M 194.0625 199.335938 C 194.0625 198.75 194.0625 198.242188 193.988281 197.65625 C 194.28125 198.824219 194.496094 199.917969 194.789062 201.085938 C 194.570312 200.425781 194.28125 199.84375 194.0625 199.335938 Z M 209.355469 189.496094 C 209.644531 189.496094 209.9375 189.421875 210.230469 189.347656 C 209.792969 190.296875 209.28125 191.316406 208.847656 192.265625 C 208.917969 191.316406 209.136719 190.441406 209.355469 189.496094 Z M 173.160156 192.265625 C 173.011719 192.121094 173.085938 192.121094 173.160156 192.265625 Z M 172.722656 49.335938 C 172.796875 41.464844 171.628906 33.59375 170.390625 25.867188 C 170.320312 25.210938 169.15625 25.355469 169.226562 26.011719 C 170.027344 32.644531 170.246094 39.277344 170.539062 45.984375 C 170.171875 45.402344 169.808594 44.890625 169.445312 44.378906 C 165.074219 38.332031 159.46875 33.011719 153.058594 29.511719 C 153.132812 29.4375 153.203125 29.367188 153.277344 29.292969 C 153.347656 29.148438 153.496094 29 153.566406 28.855469 C 154.078125 28.128906 153.132812 27.398438 152.40625 27.6875 C 154.734375 26.449219 155.972656 23.460938 157.867188 21.203125 C 159.613281 19.160156 161.652344 17.339844 163.691406 15.589844 C 165.878906 13.695312 170.027344 9.175781 173.085938 9.027344 C 175.925781 8.882812 176.800781 12.382812 178.328125 14.425781 C 185.175781 23.753906 196.101562 31.332031 194.933594 44.234375 C 194.863281 44.890625 195.226562 45.402344 195.738281 45.691406 C 190.566406 56.480469 188.671875 68.722656 187.144531 80.675781 C 187.070312 80.386719 187 80.09375 186.851562 79.800781 C 188.527344 74.046875 187.144531 66.972656 186.851562 61.289062 C 186.339844 52.105469 186.050781 42.996094 183.722656 34.03125 C 183.5 33.230469 182.335938 33.59375 182.480469 34.394531 C 184.230469 42.554688 184.375 50.867188 184.738281 59.175781 C 184.957031 64.207031 185.976562 70.253906 185.46875 75.71875 C 184.15625 72.441406 182.699219 69.234375 181.316406 66.097656 C 178.621094 60.414062 175.925781 54.730469 172.722656 49.335938 Z M 369.871094 136.726562 C 369.800781 136.726562 369.726562 136.796875 369.652344 136.796875 C 369.726562 136.144531 369.726562 135.414062 369.800781 134.757812 C 369.871094 134.027344 368.632812 133.8125 368.488281 134.613281 C 367.613281 138.839844 365.71875 142.628906 364.480469 146.78125 C 363.972656 148.386719 366.449219 149.480469 367.175781 147.949219 C 368.632812 145.035156 369.214844 141.609375 369.507812 138.328125 C 369.652344 138.476562 369.871094 138.550781 370.089844 138.621094 C 375.40625 139.203125 369.582031 151.15625 368.488281 152.613281 C 368.34375 152.832031 368.195312 152.976562 368.050781 153.195312 C 367.394531 152.90625 366.59375 153.707031 366.886719 154.4375 C 365.066406 156.1875 362.878906 157.5 360.765625 158.882812 C 357.488281 161.070312 353.992188 163.328125 353.484375 167.484375 C 353.339844 168.503906 354.796875 168.867188 355.378906 168.285156 C 358.945312 164.859375 362.296875 162.238281 366.304688 159.390625 C 367.03125 158.882812 367.6875 158.375 368.269531 157.789062 C 369.140625 160.777344 369.070312 163.984375 367.6875 166.824219 C 366.15625 170.035156 363.027344 171.78125 361.203125 174.699219 C 358.945312 178.199219 358.21875 181.257812 354.429688 183.738281 C 351.300781 185.777344 347.65625 187.019531 344.234375 188.402344 C 337.535156 191.097656 330.835938 193.648438 324.132812 196.054688 C 324.132812 196.054688 324.132812 196.054688 324.207031 195.984375 C 328.210938 193.648438 331.929688 190.660156 335.785156 188.035156 C 340.15625 185.046875 344.746094 182.28125 348.96875 179.070312 C 349.476562 178.707031 349.042969 177.976562 348.460938 178.269531 C 344.015625 180.601562 339.28125 183.226562 334.765625 186.070312 C 338.992188 181.839844 343.214844 177.6875 348.023438 174.113281 C 348.894531 173.460938 348.167969 172.292969 347.222656 172.730469 C 338.847656 176.519531 332.800781 183.589844 326.027344 189.570312 C 322.023438 193.140625 317.726562 196.199219 312.917969 198.605469 C 308.550781 200.867188 303.816406 202.03125 299.519531 204.363281 C 299.519531 204.363281 299.519531 204.363281 299.445312 204.363281 C 294.710938 205.894531 289.902344 207.351562 285.167969 208.808594 C 292.746094 201.15625 297.699219 189.496094 306.949219 184.171875 C 307.457031 183.882812 307.019531 183.152344 306.507812 183.445312 C 300.101562 186.945312 295.660156 192.410156 291.214844 198.09375 C 287.503906 202.832031 283.933594 206.988281 279.492188 210.558594 C 278.398438 210.851562 277.304688 211.214844 276.214844 211.503906 C 278.46875 209.394531 280.507812 206.914062 282.257812 204.4375 C 290.269531 193.140625 295.511719 180.96875 307.09375 172.585938 C 307.601562 172.222656 307.09375 171.417969 306.582031 171.78125 C 297.625 177.832031 291.722656 185.410156 286.191406 194.597656 C 281.820312 201.8125 277.230469 208.664062 270.679688 213.039062 C 265.796875 214.421875 260.847656 215.734375 255.894531 217.046875 C 248.753906 218.867188 241.546875 220.691406 234.335938 222.292969 C 230.402344 223.167969 225.8125 224.1875 221.59375 223.96875 C 222.753906 223.316406 223.921875 222.65625 225.085938 222.003906 C 232.953125 217.265625 240.742188 212.308594 248.539062 207.570312 C 249.121094 207.207031 248.609375 206.332031 248.027344 206.621094 C 241.328125 210.484375 234.554688 214.277344 227.855469 218.214844 C 224.648438 220.105469 221.445312 222.003906 218.09375 223.460938 C 217.003906 223.167969 215.910156 222.730469 214.964844 222.148438 C 217.730469 218.648438 220.0625 214.933594 222.171875 210.925781 C 222.246094 210.777344 222.320312 210.558594 222.390625 210.414062 C 222.828125 209.976562 223.195312 209.539062 223.484375 208.953125 C 224.648438 208.664062 225.667969 207.714844 225.085938 206.332031 C 225.085938 206.257812 225.015625 206.1875 225.015625 206.113281 C 227.417969 203.273438 229.96875 200.574219 232.804688 198.167969 C 233.753906 197.367188 233.609375 196.199219 233.027344 195.398438 C 233.609375 195.398438 234.1875 195.324219 234.773438 195.035156 C 236.59375 194.160156 238.632812 191.972656 240.234375 189.347656 C 241.257812 188.402344 242.199219 187.382812 243.148438 186.359375 C 247.738281 181.476562 252.179688 176.519531 256.695312 171.636719 C 257.203125 171.054688 256.402344 170.253906 255.820312 170.761719 C 251.378906 175.28125 247.007812 180.308594 242.199219 184.757812 C 243.585938 180.308594 242.859375 176.011719 237.539062 175.355469 C 233.171875 174.773438 229.75 178.488281 227.632812 181.839844 C 225.304688 185.484375 224.066406 189.859375 224.796875 194.160156 C 225.085938 195.691406 226.253906 196.347656 227.488281 196.273438 C 225.160156 197.949219 223.046875 199.773438 221.078125 201.738281 C 219.699219 200.9375 218.167969 200.425781 216.566406 200.136719 C 221.226562 190.808594 225.015625 181.039062 228.582031 171.273438 C 228.875 170.542969 227.707031 170.253906 227.488281 170.984375 C 223.628906 180.75 219.625 190.515625 214.671875 199.84375 C 214.160156 199.773438 213.726562 199.699219 213.214844 199.699219 C 209.867188 199.410156 208.265625 204.070312 210.519531 206.1875 C 210.59375 206.257812 210.738281 206.402344 210.8125 206.476562 C 208.335938 210.414062 205.640625 214.203125 202.945312 217.921875 C 203.164062 214.859375 203.75 211.871094 204.546875 208.953125 C 205.421875 205.675781 206.515625 202.542969 207.316406 199.261719 C 209.644531 195.179688 211.613281 190.882812 213.507812 186.503906 C 218.023438 176.085938 222.246094 165.585938 226.617188 155.09375 C 226.835938 154.507812 225.8125 154.070312 225.523438 154.65625 C 221.371094 163.984375 217.222656 173.242188 213.070312 182.570312 C 213.433594 175.867188 214.160156 164.347656 206.660156 164.128906 C 202.65625 163.984375 201.78125 167.628906 201.78125 170.761719 C 201.78125 174.917969 201.269531 181.1875 203.675781 184.757812 C 204.039062 185.265625 204.546875 185.558594 205.058594 185.707031 C 205.058594 186.578125 205.496094 187.453125 206.078125 188.109375 C 204.257812 191.535156 201.855469 194.671875 200.179688 198.167969 C 199.960938 198.679688 199.742188 199.1875 199.523438 199.628906 C 199.523438 198.023438 199.449219 196.347656 199.378906 194.671875 C 198.941406 182.28125 198.359375 169.890625 198.359375 157.425781 C 198.433594 132.207031 200.6875 106.988281 207.96875 82.863281 C 208.191406 82.132812 207.027344 81.769531 206.808594 82.574219 C 199.8125 104.800781 196.976562 127.980469 196.390625 151.230469 C 196.101562 163.035156 196.316406 174.84375 196.832031 186.652344 C 196.976562 190.660156 197.195312 194.742188 197.265625 198.75 C 194.28125 186.214844 190.203125 173.679688 189.109375 160.925781 C 187.214844 138.035156 190.710938 114.785156 195.519531 92.410156 C 195.589844 91.972656 194.933594 91.753906 194.863281 92.191406 C 190.785156 110.125 187.214844 128.125 186.851562 146.492188 C 185.6875 126.230469 187.507812 105.96875 190.054688 85.921875 C 192.386719 67.628906 194.132812 45.835938 208.917969 32.789062 C 212.339844 29.730469 216.273438 27.398438 220.714844 26.085938 C 223.921875 25.136719 227.269531 24.773438 230.257812 23.171875 C 224.285156 29.949219 220.0625 38.984375 217.4375 47.148438 C 217.222656 47.878906 218.316406 48.171875 218.605469 47.441406 C 220.714844 41.902344 223.265625 36.582031 226.542969 31.699219 C 229.527344 27.179688 233.316406 23.460938 236.523438 19.160156 C 236.738281 18.867188 236.59375 18.433594 236.304688 18.214844 C 236.957031 17.558594 237.613281 16.976562 238.34375 16.390625 C 243.804688 11.875 250.210938 13.113281 254.800781 18.070312 L 254.875 18.140625 C 255.09375 19.234375 256.621094 19.234375 256.765625 18.070312 C 256.695312 15.882812 257.570312 14.425781 259.390625 13.550781 C 260.554688 11.945312 262.011719 11.726562 263.683594 12.964844 C 266.527344 13.765625 267.546875 14.789062 269.222656 17.195312 C 271.117188 19.890625 272.5 22.953125 273.371094 26.011719 C 275.191406 32.28125 275.265625 38.914062 273.957031 45.253906 C 272.644531 51.816406 270.023438 58.011719 266.890625 63.914062 C 263.976562 69.308594 260.117188 74.410156 258.222656 80.3125 C 257.714844 81.988281 260.191406 83.007812 261.066406 81.480469 C 261.210938 81.261719 261.285156 81.039062 261.429688 80.820312 C 261.574219 81.039062 261.9375 81.1875 262.226562 80.96875 C 267.179688 77.617188 271.40625 72.585938 276.722656 69.671875 C 274.246094 76.597656 269.875 82.207031 266.019531 88.402344 C 261.9375 95.035156 258.515625 101.886719 255.238281 108.957031 C 254.945312 109.539062 255.820312 110.125 256.1875 109.464844 C 260.191406 101.742188 264.632812 94.160156 269.367188 86.871094 C 272.863281 81.550781 278.324219 75.867188 278.25 69.089844 C 278.25 69.015625 278.25 68.941406 278.179688 68.871094 C 279.128906 68.429688 280.144531 68.066406 281.164062 67.777344 C 291.144531 65.152344 297.988281 71.421875 300.171875 80.605469 C 300.394531 81.625 302.066406 81.699219 302.285156 80.605469 C 303.816406 72.292969 296.09375 65.371094 288.375 64.496094 C 278.324219 63.402344 269.296875 71.496094 262.742188 78.5625 C 271.84375 63.039062 282.257812 45.546875 277.160156 26.886719 C 275.558594 21.054688 271.480469 12.164062 265.140625 9.976562 C 260.699219 8.449219 255.671875 11.726562 255.019531 16.171875 C 252.398438 13.039062 248.464844 11.363281 244.238281 11.582031 C 237.25 11.945312 234.042969 18.578125 228 21.054688 C 221.300781 23.824219 214.964844 24.191406 208.917969 28.78125 C 204.765625 31.988281 201.269531 35.996094 198.503906 40.445312 C 198.210938 34.902344 195.664062 29.949219 192.242188 25.429688 C 189.984375 22.511719 187.363281 19.816406 184.957031 17.046875 C 182.191406 13.914062 180.371094 10.195312 177.746094 7.0625 C 173.890625 2.542969 167.625 8.300781 164.421875 11.070312 C 159.03125 15.738281 152.914062 20.910156 150.875 28.054688 C 150.875 28.128906 150.875 28.199219 150.875 28.199219 C 145.484375 25.722656 139.585938 24.484375 133.25 25.210938 C 132.082031 25.355469 132.011719 27.179688 133.25 27.105469 C 164.785156 25.648438 178.621094 66.171875 185.46875 90.371094 C 185.542969 90.589844 185.6875 90.808594 185.832031 90.953125 C 183.5 109.03125 182.046875 127.25 182.917969 145.472656 C 183.648438 160.777344 187.507812 175.792969 189.398438 190.882812 C 188.378906 189.203125 187.433594 187.527344 186.777344 185.707031 C 186.558594 184.976562 186.050781 184.539062 185.542969 184.394531 C 188.378906 178.269531 185.25 164.640625 177.964844 163.402344 C 173.449219 162.601562 171.773438 166.390625 172.066406 170.035156 C 165 149.773438 158.59375 129.21875 153.058594 108.519531 C 152.839844 107.789062 151.746094 108.082031 151.964844 108.8125 C 157.355469 130.3125 163.398438 151.59375 170.683594 172.585938 C 173.304688 180.164062 176.074219 187.671875 178.914062 195.105469 C 178.039062 193.867188 177.019531 192.773438 176 191.679688 C 170.683594 181.039062 165.804688 170.253906 161.359375 159.246094 C 152.476562 137.089844 145.628906 114.203125 139.949219 91.023438 C 139.804688 90.589844 139.148438 90.734375 139.222656 91.246094 C 143.734375 115.734375 151.019531 139.566406 160.339844 162.601562 C 163.910156 171.347656 167.769531 180.019531 171.921875 188.476562 C 171.773438 188.402344 171.628906 188.257812 171.554688 188.183594 C 170.027344 187.164062 167.40625 187.746094 166.605469 189.496094 C 166.3125 190.078125 166.167969 190.660156 166.023438 191.246094 C 156.992188 177.46875 149.417969 162.601562 145.121094 146.636719 C 144.902344 145.910156 143.882812 146.203125 144.027344 146.929688 C 148.035156 164.058594 155.679688 179.65625 165.441406 194.230469 C 170.027344 201.085938 174.980469 207.714844 180.152344 214.128906 C 181.171875 215.367188 182.117188 216.679688 183.136719 217.992188 C 179.496094 216.460938 175.636719 215.148438 172.066406 213.621094 C 171.265625 213.257812 170.539062 214.421875 171.339844 214.859375 C 176.144531 217.121094 181.097656 220.035156 186.121094 222.003906 C 186.269531 222.222656 186.414062 222.4375 186.632812 222.585938 C 187.144531 223.460938 187.726562 224.335938 188.308594 225.207031 C 188.160156 225.207031 187.941406 225.207031 187.726562 225.28125 C 186.851562 225.5 185.976562 225.792969 185.101562 226.082031 C 179.203125 224.042969 172.941406 222.730469 167.042969 220.617188 C 158.59375 217.699219 150.289062 214.277344 142.351562 210.195312 C 141.769531 209.902344 141.1875 210.777344 141.84375 211.140625 C 153.496094 217.773438 166.75 224.113281 180.152344 227.394531 C 175.492188 228.125 171.191406 228.5625 166.242188 227.757812 C 161.214844 226.886719 156.335938 225.28125 151.527344 223.679688 C 150.65625 223.386719 150.363281 224.699219 151.164062 224.988281 C 156.773438 227.175781 163.765625 230.019531 170.539062 230.605469 C 170.097656 230.75 169.664062 230.894531 169.226562 230.96875 C 161.652344 232.933594 154.515625 232.933594 146.867188 231.402344 C 133.539062 228.78125 121.667969 225.867188 107.90625 227.03125 C 83.070312 229.21875 50.953125 237.453125 35.292969 211.578125 C 34.855469 210.851562 33.472656 211.289062 33.835938 212.234375 C 43.597656 239.203125 78.628906 234.464844 100.695312 231.769531 C 108.269531 230.820312 115.839844 230.089844 123.488281 230.75 C 129.898438 231.257812 136.089844 233.007812 142.351562 234.394531 C 110.164062 238.835938 82.996094 260.488281 58.964844 281.183594 C 57.144531 282.71875 59.761719 285.269531 61.585938 283.808594 C 87.148438 262.378906 112.929688 240.222656 147.085938 235.414062 C 147.304688 235.488281 147.597656 235.488281 147.816406 235.558594 C 151.238281 236.140625 154.515625 236.359375 157.792969 236.285156 C 153.203125 238.109375 148.761719 240.222656 144.464844 242.335938 C 135.726562 246.636719 126.695312 251.375 119.117188 257.640625 C 115.839844 260.339844 113.148438 263.402344 110.816406 266.898438 C 107.832031 271.492188 104.40625 274.1875 100.257812 277.613281 C 93.628906 283.007812 88.023438 290.585938 85.546875 298.824219 C 85.402344 299.332031 86.128906 299.625 86.421875 299.1875 C 90.714844 289.855469 95.960938 283.082031 104.1875 277.03125 C 110.742188 272.21875 113.730469 264.859375 119.921875 259.609375 C 133.832031 247.804688 151.238281 241.609375 167.988281 234.976562 C 174.832031 233.589844 181.535156 231.257812 188.308594 228.851562 C 188.601562 228.851562 188.890625 228.78125 189.035156 228.5625 C 189.546875 228.269531 189.910156 227.757812 189.984375 227.25 C 190.421875 227.757812 190.785156 228.269531 191.292969 228.78125 C 181.097656 232.132812 171.046875 236.214844 161.871094 241.683594 C 150.65625 248.386719 142.425781 257.421875 135.871094 268.648438 C 132.011719 275.28125 128.441406 281.914062 123.636719 287.964844 C 118.828125 294.015625 113.292969 299.480469 108.34375 305.382812 C 100.402344 314.859375 93.558594 326.007812 93.703125 338.765625 C 93.703125 339.347656 94.578125 339.347656 94.578125 338.765625 C 95.304688 323.75 104.554688 312.378906 114.238281 301.738281 C 122.980469 292.191406 130.261719 282.644531 136.746094 271.417969 C 143.445312 259.828125 151.382812 250.5 162.964844 243.574219 C 171.773438 238.257812 181.386719 234.683594 191.003906 231.183594 C 190.128906 231.988281 189.253906 232.789062 188.378906 233.519531 C 182.699219 238.546875 177.3125 243.722656 172.066406 249.191406 C 161.722656 259.972656 152.695312 271.566406 144.394531 283.957031 C 144.027344 284.464844 144.828125 284.902344 145.191406 284.390625 C 153.277344 273.386719 162.164062 262.746094 171.554688 252.832031 C 175.855469 248.3125 180.296875 243.941406 184.882812 239.714844 C 187.652344 237.164062 190.492188 234.246094 193.625 231.84375 C 191.367188 240.003906 188.160156 247.804688 183.792969 255.089844 C 181.097656 259.683594 177.964844 263.984375 174.46875 267.992188 C 171.921875 270.980469 168.496094 273.605469 166.894531 277.25 C 164.929688 281.839844 164.710938 286.652344 162.089844 291.167969 C 159.46875 295.6875 155.828125 299.625 151.964844 303.195312 C 144.394531 310.195312 135.796875 315.949219 128.878906 323.75 C 128.441406 324.261719 129.171875 325.0625 129.679688 324.550781 C 136.816406 316.609375 145.996094 310.992188 153.859375 303.855469 C 160.996094 297.363281 165.585938 290.152344 167.914062 280.746094 C 169.371094 274.988281 174.542969 271.199219 178.183594 266.753906 C 181.097656 263.183594 183.648438 259.394531 185.976562 255.386719 C 190.128906 248.242188 193.332031 240.589844 195.519531 232.640625 C 195.589844 232.714844 195.738281 232.863281 195.808594 232.933594 C 196.027344 233.226562 196.246094 233.445312 196.535156 233.589844 C 197.195312 234.175781 197.773438 234.757812 198.433594 235.339844 C 198.503906 235.414062 198.578125 235.414062 198.652344 235.414062 C 197.921875 241.609375 195.007812 248.023438 193.113281 253.632812 C 190.640625 260.921875 188.015625 268.140625 185.101562 275.28125 C 184.882812 275.863281 185.90625 276.300781 186.121094 275.71875 C 189.546875 267.921875 192.824219 260.121094 195.664062 252.105469 C 197.703125 246.273438 200.835938 239.714844 200.761719 233.371094 C 201.78125 233.007812 202.800781 232.496094 203.820312 231.914062 C 202.726562 245.546875 202.074219 259.027344 198.140625 272.292969 C 193.917969 286.359375 185.03125 298.605469 182.917969 313.328125 C 182.699219 314.710938 184.738281 315.296875 185.03125 313.910156 C 187.941406 298.824219 197.558594 286.066406 201.929688 271.34375 C 204.183594 263.765625 205.640625 255.820312 206.589844 247.730469 C 206.953125 249.84375 207.316406 251.957031 207.753906 253.925781 C 210.304688 265.589844 213.289062 277.175781 216.421875 288.691406 C 216.640625 289.566406 217.949219 289.203125 217.800781 288.328125 C 215.910156 277.394531 213.796875 266.535156 211.46875 255.601562 C 210.375 250.574219 209.5 245.546875 209.355469 240.371094 C 209.210938 235.921875 209.867188 231.621094 210.230469 227.25 C 210.375 227.25 210.59375 227.175781 210.738281 227.175781 C 210.882812 228.417969 211.03125 229.726562 211.246094 230.96875 C 210.738281 233.082031 211.175781 234.976562 212.050781 236.800781 C 213.144531 244.011719 214.523438 251.226562 217.148438 257.789062 C 220.644531 266.390625 226.691406 273.3125 234.261719 278.558594 C 234.917969 279 235.5 277.980469 234.917969 277.464844 C 222.320312 268.429688 217.875 255.164062 215.253906 241.097656 C 216.710938 242.554688 218.316406 243.867188 219.84375 245.03125 C 223.921875 248.097656 228.148438 250.9375 232.585938 253.488281 C 237.03125 256.039062 243.222656 257.9375 245.695312 262.746094 C 245.988281 263.328125 246.789062 262.820312 246.5 262.234375 C 243.65625 256.476562 236.738281 254.292969 231.640625 251.011719 C 225.523438 247.074219 217.4375 242.480469 214.378906 235.632812 C 214.015625 233.15625 213.652344 230.605469 213.289062 228.125 C 217.585938 232.714844 222.101562 237.089844 227.34375 240.515625 C 235.066406 245.546875 244.09375 247.730469 252.691406 250.863281 C 271.550781 257.789062 289.613281 267.554688 305.710938 279.582031 C 306.144531 279.871094 306.507812 279.21875 306.144531 278.851562 C 291.433594 267.554688 275.703125 258.152344 258.585938 251.082031 C 249.703125 247.4375 240.015625 245.105469 231.640625 240.515625 C 225.667969 237.234375 220.644531 232.570312 215.910156 227.6875 C 236.667969 234.539062 259.390625 236.652344 280.949219 237.964844 C 292.671875 238.691406 305.492188 240.515625 317.144531 239.058594 C 329.015625 237.527344 337.898438 227.832031 350.425781 231.332031 C 352.101562 231.84375 352.976562 229.511719 351.59375 228.5625 C 342.777344 222.800781 332.65625 229.582031 324.28125 232.933594 C 312.773438 237.527344 298.207031 234.828125 286.117188 234.175781 C 266.527344 233.15625 247.445312 231.039062 228.4375 227.394531 C 235.792969 226.519531 243.367188 223.96875 249.046875 222.511719 C 268.492188 217.628906 287.792969 211.945312 306.726562 205.382812 C 316.050781 202.179688 325.300781 198.75 334.476562 195.179688 C 341.976562 192.265625 351.078125 189.859375 357.632812 184.976562 C 360.039062 183.152344 361.425781 181.113281 362.808594 178.417969 C 364.773438 174.480469 368.269531 171.929688 370.308594 168.136719 C 372.566406 163.839844 372.347656 159.171875 370.164062 155.238281 C 371.402344 153.855469 372.417969 152.324219 373.148438 150.574219 C 374.605469 147.730469 377.519531 134.976562 369.871094 136.726562 Z M 321.4375 282.203125 C 323.84375 279.289062 324.714844 276.8125 324.933594 273.09375 C 325.082031 270.835938 325.15625 268.71875 327.121094 267.335938 C 327.847656 266.828125 328.796875 267.554688 328.796875 268.285156 C 328.867188 269.886719 328.285156 271.417969 328.066406 273.023438 C 327.847656 274.480469 327.703125 276.007812 327.265625 277.464844 C 326.390625 279.945312 324.789062 282.203125 322.53125 283.589844 C 321.585938 284.101562 320.785156 282.933594 321.4375 282.203125 Z M 237.464844 302.90625 C 245.550781 307.714844 253.125 305.164062 261.792969 305.820312 C 265.945312 306.183594 269.511719 308.007812 273.515625 309.101562 C 277.886719 310.265625 282.183594 309.976562 286.410156 308.808594 C 280.363281 304.796875 274.972656 300.28125 268.128906 297.4375 C 267.691406 297.21875 267.984375 296.492188 268.417969 296.710938 C 275.335938 299.480469 283.132812 302.6875 288.300781 308.296875 C 294.855469 306.183594 300.828125 303.195312 306.4375 299.480469 C 306.363281 299.40625 306.289062 299.261719 306.21875 299.117188 C 302.867188 288.253906 292.238281 283.808594 283.132812 278.414062 C 282.550781 278.050781 283.058594 277.25 283.640625 277.539062 C 292.746094 282.058594 305.710938 287.089844 307.820312 298.457031 C 309.203125 297.511719 310.515625 296.492188 311.898438 295.398438 C 312.917969 294.59375 314.085938 295.542969 313.648438 296.710938 C 310.222656 304.582031 299.300781 308.078125 291.941406 310.921875 C 287.136719 312.746094 282.039062 314.058594 276.792969 313.546875 C 271.40625 313.035156 266.746094 310.050781 261.429688 309.464844 C 256.113281 308.882812 250.792969 310.121094 245.476562 309.171875 C 241.546875 308.441406 237.90625 306.769531 234.703125 304.289062 C 228.292969 299.40625 223.121094 292.117188 219.257812 285.195312 C 218.75 284.320312 220.0625 283.515625 220.644531 284.390625 C 225.523438 291.316406 229.96875 298.457031 237.464844 302.90625 Z M 347.367188 261.945312 C 348.097656 267.480469 343.363281 272.363281 340.085938 276.15625 C 338.847656 277.539062 337.316406 278.925781 336.296875 280.457031 C 333.75 284.027344 334.765625 285.339844 334.183594 288.765625 C 333.820312 290.949219 332.945312 292.992188 331.5625 294.8125 C 329.960938 296.929688 327.703125 298.75 325.15625 299.40625 C 322.242188 307.863281 314.011719 312.601562 305.710938 314.859375 C 293.691406 318.066406 280.730469 318.867188 268.417969 320.46875 C 258.078125 321.855469 246.71875 323.605469 236.886719 319.011719 C 228.292969 315.003906 221.59375 305.675781 218.894531 296.78125 C 218.386719 295.035156 220.714844 294.378906 221.59375 295.617188 C 227.78125 303.925781 230.765625 313.253906 241.621094 316.679688 C 250.503906 319.449219 260.261719 317.773438 269.222656 316.609375 C 279.492188 315.296875 289.976562 314.421875 300.171875 312.671875 C 309.351562 311.066406 317.941406 307.644531 322.75 299.625 C 322.242188 299.625 321.804688 299.550781 321.292969 299.480469 C 320.640625 299.332031 320.421875 298.238281 321.074219 297.949219 C 323.554688 296.78125 326.246094 295.980469 328.210938 294.015625 C 331.636719 290.585938 330.617188 287.304688 331.488281 283.152344 C 332.292969 279.4375 335.570312 276.8125 337.972656 274.117188 C 339.28125 272.65625 340.59375 271.125 341.6875 269.597656 C 343.433594 267.117188 344.890625 263.109375 343.726562 260.046875 C 342.921875 258.007812 340.15625 256.476562 338.847656 254.726562 C 336.515625 251.445312 336.078125 247.65625 337.605469 243.941406 C 337.824219 243.359375 338.992188 243.359375 338.847656 244.085938 C 338.117188 250.132812 340.667969 252.761719 344.453125 256.695312 C 345.910156 258.226562 347.074219 259.828125 347.367188 261.945312 Z M 356.03125 237.746094 C 356.691406 240.148438 355.015625 241.683594 353.195312 242.921875 C 349.699219 245.253906 345.835938 248.023438 341.976562 249.699219 C 341.03125 250.132812 339.792969 248.894531 340.738281 248.097656 C 342.777344 246.417969 345.109375 245.179688 347.367188 243.792969 C 348.679688 242.996094 353.046875 241.171875 353.777344 239.203125 C 351.375 239.058594 349.332031 237.671875 348.316406 235.414062 C 348.023438 234.828125 348.53125 234.320312 349.042969 234.320312 C 345.183594 232.351562 340.085938 235.851562 336.878906 237.964844 C 333.238281 240.371094 330.398438 243.429688 327.410156 246.566406 C 326.976562 247.003906 326.171875 246.417969 326.539062 245.910156 C 329.59375 240.808594 334.402344 236.726562 339.644531 233.953125 C 343.144531 232.132812 347.511719 230.089844 350.863281 233.15625 C 351.664062 233.882812 350.570312 235.339844 349.699219 234.683594 C 349.699219 234.683594 349.625 234.683594 349.625 234.613281 C 350.789062 236.285156 352.683594 237.164062 354.722656 236.871094 C 355.234375 236.800781 355.886719 237.089844 356.03125 237.746094 Z M 185.394531 318.136719 C 187.144531 326.8125 184.300781 336.433594 179.640625 343.722656 C 178.328125 345.832031 176 350.136719 173.230469 350.425781 C 170.539062 350.714844 169.519531 346.199219 167.625 345.980469 C 167.625 346.273438 167.550781 346.492188 167.40625 346.78125 C 160.925781 357.207031 147.160156 360.921875 136.019531 363.910156 C 128.585938 365.953125 120.867188 367.992188 113.078125 367.992188 C 105.136719 368.0625 97.488281 365.441406 89.550781 365.222656 C 88.679688 365.222656 88.679688 363.910156 89.550781 363.835938 C 96.472656 363.179688 103.097656 364.417969 110.015625 364.566406 C 117.515625 364.714844 124.800781 363.105469 132.011719 361.140625 C 144.539062 357.789062 155.609375 354.289062 164.785156 344.742188 C 165.441406 344.085938 166.242188 344.15625 166.820312 344.519531 C 168.132812 343.941406 168.351562 343.941406 169.882812 344.59375 C 171.484375 345.25 170.683594 345.980469 172.433594 346.34375 C 174.980469 346.855469 175.78125 344.15625 177.09375 342.117188 C 181.679688 334.609375 182.410156 326.882812 182.84375 318.355469 C 182.917969 317.117188 185.101562 316.679688 185.394531 318.136719 Z M 106.011719 144.160156 C 106.8125 144.160156 107.613281 144.160156 108.488281 144.160156 C 109.289062 144.230469 110.164062 144.085938 110.890625 144.160156 C 110.960938 144.160156 111.109375 144.160156 111.183594 144.160156 C 114.824219 149.773438 118.828125 155.238281 123.34375 160.265625 C 123.707031 160.632812 124.070312 160.851562 124.511719 160.925781 C 125.527344 162.816406 126.621094 164.640625 127.714844 166.460938 C 121.667969 161.144531 115.769531 155.75 110.015625 149.917969 C 108.195312 148.09375 106.375 146.203125 104.480469 144.378906 C 104.917969 144.230469 105.429688 144.160156 106.011719 144.160156 Z M 6.527344 151.230469 C 8.347656 145.542969 8.710938 139.492188 13.007812 134.976562 C 18.6875 129.074219 27.210938 126.957031 33.398438 121.566406 C 33.691406 121.710938 34.058594 121.785156 34.492188 121.636719 C 44.832031 118.355469 54.519531 117.703125 64.933594 120.980469 C 74.621094 124.042969 83.144531 129.875 90.789062 136.363281 C 104.117188 147.585938 115.476562 162.453125 130.699219 171.273438 C 132.375 173.824219 134.125 176.300781 136.019531 178.78125 C 141.117188 185.558594 146.722656 191.972656 152.914062 197.804688 C 159.03125 203.636719 165.949219 210.195312 173.523438 214.054688 C 175.125 214.859375 177.09375 212.746094 175.5625 211.359375 C 169.15625 205.601562 161.941406 200.9375 155.753906 194.960938 C 149.273438 188.765625 143.226562 181.988281 137.910156 174.699219 C 127.859375 160.925781 120.066406 145.542969 114.96875 129.21875 C 111.910156 119.378906 109.871094 109.246094 108.34375 99.042969 C 106.886719 89.058594 104.703125 78.125 107.25 68.140625 C 109.359375 59.902344 114.019531 52.617188 116.863281 44.671875 C 118.027344 41.464844 118.902344 38.113281 119.117188 34.6875 C 119.265625 32.9375 118.539062 30.3125 119.046875 28.636719 C 121.304688 20.910156 126.1875 27.324219 127.933594 29.585938 C 128.585938 30.460938 129.898438 29.367188 129.464844 28.417969 C 127.570312 24.917969 123.054688 19.597656 118.683594 22.730469 C 114.386719 25.792969 116.570312 34.757812 115.550781 39.058594 C 114.09375 45.109375 111.183594 50.648438 108.558594 56.332031 C 107.683594 52.980469 106.304688 49.554688 105.355469 46.347656 C 105.136719 45.621094 103.972656 45.910156 104.1875 46.640625 C 105.210938 50.648438 105.792969 55.242188 107.320312 59.175781 C 107.101562 59.757812 106.8125 60.269531 106.59375 60.851562 C 105.9375 62.527344 105.355469 64.277344 104.847656 65.953125 C 101.128906 58.445312 95.667969 49.628906 95.597656 41.316406 C 95.597656 40.589844 94.429688 40.589844 94.429688 41.316406 C 94.210938 50.722656 99.527344 60.5625 103.898438 68.722656 C 103.972656 68.871094 104.042969 68.941406 104.117188 69.015625 C 103.097656 73.824219 102.953125 78.78125 103.316406 83.957031 C 104.628906 102.25 107.90625 120.179688 113.875 137.089844 C 106.886719 119.742188 99.089844 102.542969 95.160156 84.320312 C 95.015625 83.589844 93.847656 83.886719 93.992188 84.613281 C 96.25 96.640625 100.257812 108.007812 104.628906 119.449219 C 106.304688 123.898438 107.832031 128.636719 109.507812 133.371094 C 107.683594 130.167969 105.9375 126.957031 104.261719 123.679688 C 98.148438 111.871094 91.371094 99.84375 88.894531 86.582031 C 86.492188 73.972656 85.617188 59.46875 87.003906 46.714844 C 87.730469 40.003906 90.0625 32.9375 95.304688 28.492188 C 100.910156 23.753906 108.488281 23.898438 114.167969 28.273438 C 115.042969 29 115.988281 27.542969 115.332031 26.816406 C 107.90625 18.070312 94.871094 22.511719 88.96875 30.679688 C 80.304688 42.628906 82.488281 60.5625 83.363281 74.335938 C 83.871094 82.132812 84.964844 89.933594 87.4375 97.367188 C 89.988281 104.800781 93.703125 111.871094 97.199219 118.871094 C 101.128906 126.738281 105.28125 134.613281 109.945312 142.046875 C 109.652344 141.898438 109.433594 141.828125 109.070312 141.753906 C 108.195312 141.609375 107.25 141.464844 106.304688 141.464844 C 105.066406 141.390625 103.316406 141.246094 102.222656 141.972656 C 97.417969 137.238281 92.464844 132.71875 87.003906 128.636719 C 72.507812 117.777344 50.660156 109.101562 33.253906 118.578125 C 32.746094 118.871094 32.527344 119.304688 32.527344 119.816406 C 24.296875 126.304688 12.207031 127.980469 7.253906 138.109375 C 4.558594 143.652344 3.175781 150.136719 0.992188 155.894531 C -1.050781 161.433594 0.40625 165.515625 3.25 170.46875 C 4.34375 172.367188 7.328125 170.617188 6.164062 168.722656 C 3.902344 164.933594 2.59375 161.507812 4.050781 157.132812 C 4.777344 155.238281 5.796875 153.34375 6.527344 151.230469 Z M 27.0625 208.375 C 18.6875 205.824219 13.226562 197.222656 10.238281 187.890625 C 10.167969 187.816406 10.023438 187.816406 9.949219 187.746094 C 9.296875 187.382812 9.367188 186.652344 9.730469 186.214844 C 7.910156 179.875 7.179688 173.242188 7.398438 168.136719 C 7.621094 163.910156 8.710938 159.976562 10.675781 156.1875 C 13.300781 151.304688 14.757812 146.855469 16.066406 141.464844 C 17.597656 135.050781 20 128.925781 26.699219 126.59375 C 27.71875 126.230469 28.082031 127.761719 27.136719 128.195312 C 18.613281 131.695312 19.199219 141.972656 17.230469 149.332031 C 16.066406 153.636719 13.882812 157.132812 12.351562 160.996094 C 32.601562 168.285156 52.84375 175.644531 73.089844 183.007812 C 83.363281 186.722656 93.703125 190.515625 103.972656 194.304688 C 113.804688 197.949219 123.488281 202.03125 133.757812 204.363281 C 134.269531 204.4375 134.050781 205.164062 133.539062 205.09375 C 112.710938 201.15625 92.464844 192.191406 72.582031 185.046875 C 52.265625 177.757812 31.941406 170.46875 11.625 163.109375 C 11.042969 164.933594 10.675781 166.898438 10.605469 169.011719 C 10.53125 175.207031 11.625 181.695312 14.027344 187.597656 C 21.164062 191.460938 28.664062 194.671875 36.457031 197.003906 C 43.890625 199.261719 51.535156 200.425781 59.109375 202.105469 C 66.390625 203.78125 72 206.988281 78.261719 210.996094 C 85.402344 215.515625 93.265625 218.792969 101.496094 220.617188 C 101.933594 220.691406 101.789062 221.417969 101.277344 221.34375 C 93.703125 219.816406 86.640625 217.484375 79.867188 213.691406 C 72.144531 209.320312 65.589844 205.308594 56.777344 203.5625 C 42.214844 200.648438 28.519531 197.222656 15.410156 190.660156 C 18.398438 196.710938 22.621094 202.03125 28.300781 205.75 C 29.613281 206.550781 28.738281 208.882812 27.0625 208.375 Z M 296.386719 101.742188 C 296.96875 102.90625 297.625 104.507812 298.496094 105.675781 C 293.984375 107.863281 289.757812 110.488281 285.898438 113.839844 C 278.035156 120.691406 271.914062 129.144531 262.742188 134.175781 C 265.070312 130.53125 267.402344 126.957031 269.949219 123.460938 C 276.941406 113.914062 286.480469 106.261719 294.128906 97.21875 C 294.710938 98.828125 295.660156 100.285156 296.386719 101.742188 Z M 301.554688 83.371094 C 292.382812 98.167969 277.816406 108.082031 267.328125 121.785156 C 261.71875 129.074219 256.839844 136.941406 251.886719 144.671875 C 246.207031 153.417969 239.507812 162.089844 234.917969 171.347656 C 234.1875 172.875 236.230469 174.699219 237.394531 173.242188 C 238.777344 171.492188 240.164062 169.742188 241.402344 167.847656 C 241.621094 168.066406 242.054688 168.136719 242.417969 167.847656 C 250.285156 161.289062 259.679688 156.621094 267.253906 149.699219 C 275.046875 142.484375 279.054688 131.914062 288.011719 125.9375 C 288.664062 125.5 288.082031 124.480469 287.355469 124.847656 C 278.542969 130.457031 274.394531 139.933594 267.109375 147.148438 C 260.480469 153.78125 251.015625 157.28125 244.238281 163.695312 C 247.738281 158.300781 251.015625 152.6875 254.4375 147.367188 C 256.550781 144.015625 258.660156 140.660156 260.773438 137.308594 C 260.917969 137.308594 261.066406 137.308594 261.210938 137.308594 C 269.296875 134.683594 275.265625 128.78125 281.164062 123.023438 C 289.105469 115.226562 297.117188 109.464844 307.746094 105.820312 C 312.117188 104.363281 316.707031 102.617188 321.292969 101.8125 C 327.703125 100.71875 329.523438 107.207031 333.601562 110.488281 C 339.644531 115.441406 348.460938 116.464844 353.558594 122.585938 C 353.121094 122.585938 352.753906 122.585938 352.320312 122.585938 C 347.367188 122.367188 342.632812 121.929688 337.679688 122.660156 C 316.632812 125.644531 300.828125 141.246094 288.300781 157.28125 C 287.792969 157.933594 288.664062 158.957031 289.25 158.226562 C 299.226562 146.273438 310.878906 134.90625 325.664062 129.363281 C 330.835938 127.398438 336.148438 126.304688 341.613281 126.085938 C 335.640625 132.058594 329.816406 137.527344 322.824219 142.558594 C 316.484375 147.148438 310.003906 151.667969 304.542969 157.207031 C 298.277344 163.546875 294.929688 171.199219 290.996094 179.070312 C 285.972656 189.277344 278.398438 197.148438 267.621094 201.15625 C 267.035156 201.375 267.328125 202.25 267.839844 202.03125 C 275.703125 199.261719 282.550781 194.671875 287.574219 187.964844 C 294.058594 179.214844 296.675781 168.359375 304.179688 160.195312 C 310.445312 153.34375 318.308594 148.242188 325.808594 142.773438 C 332.21875 138.109375 339.644531 132.933594 343.796875 125.9375 C 345.039062 125.9375 346.273438 125.9375 347.585938 126.085938 C 351.300781 126.375 355.015625 126.886719 358.726562 126.304688 C 360.183594 126.085938 370.742188 123.679688 371.109375 127.105469 C 370.816406 126.886719 370.378906 126.886719 370.089844 127.25 C 362.878906 135.632812 355.742188 143.136719 346.273438 149.042969 C 345.617188 149.480469 346.199219 150.425781 346.859375 150.0625 C 355.742188 145.324219 364.335938 138.695312 370.089844 130.3125 C 370.234375 131.550781 371.910156 132.570312 372.929688 131.40625 C 376.425781 127.324219 373.367188 121.855469 368.34375 120.980469 C 364.847656 120.328125 361.203125 121.347656 357.5625 122.074219 C 357.5625 122.074219 357.5625 122 357.488281 122 C 352.902344 114.058594 343.507812 113.183594 336.664062 108.082031 C 333.019531 105.386719 331.636719 100.136719 327.339844 98.3125 C 323.261719 96.640625 318.527344 98.386719 314.519531 99.554688 C 310.078125 100.863281 305.78125 102.324219 301.554688 104.144531 C 301.191406 102.617188 300.101562 101.085938 299.226562 99.917969 C 298.132812 98.386719 296.824219 96.785156 295.148438 95.835938 C 298.132812 92.191406 300.757812 88.328125 302.796875 83.957031 C 303.160156 83.300781 302.066406 82.574219 301.554688 83.371094 " fill-opacity="1" fill-rule="nonzero"/></g></svg>